<?xml version="1.0" encoding="UTF-8" standalone="no"?><svg xmlns="http://www.w3.org/2000/svg" xmlns:xlink="http://www.w3.org/1999/xlink" contentStyleType="text/css" height="284px" preserveAspectRatio="none" style="width:184px;height:284px;background:#FFFFFF;" version="1.1" viewBox="0 0 184 284" width="184px" zoomAndPan="magnify"><defs/><g><!--MD5=[3fd616f346a44cd59a91eb10b19e157c]
class User--><g id="elem_User"><rect codeLine="3" fill="#F1F1F1" height="96.8906" id="User" rx="2.5" ry="2.5" style="stroke:#181818;stroke-width:0.5;" width="170" x="7" y="7"/><ellipse cx="72.25" cy="23" fill="#ADD1B2" rx="11" ry="11" style="stroke:#181818;stroke-width:1.0;"/><path d="M71.0469,23.875 L72.5,23.875 L72.5,23.9844 C72.5,24.3906 72.5313,24.5469 72.6094,24.7031 C72.7656,24.9531 73.0469,25.1094 73.3438,25.1094 C73.5938,25.1094 73.8594,24.9688 74.0156,24.75 C74.1406,24.5938 74.1719,24.4375 74.1719,23.9844 L74.1719,22.0625 C74.1719,21.9063 74.1719,21.8594 74.1563,21.7031 C74.0938,21.2344 73.7813,20.9219 73.3281,20.9219 C73.0781,20.9219 72.8125,21.0625 72.6406,21.2813 C72.5313,21.4531 72.5,21.6094 72.5,22.0625 L72.5,22.1875 L71.0469,22.1875 L71.0469,19.7813 L75.0313,19.7813 L75.0313,20.6406 C75.0313,21.0469 75.0625,21.2188 75.1406,21.375 C75.3125,21.625 75.5938,21.7813 75.875,21.7813 C76.1406,21.7813 76.4063,21.6406 76.5781,21.4219 C76.6875,21.25 76.7188,21.1094 76.7188,20.6406 L76.7188,18.0938 L69.0938,18.0938 C68.6563,18.0938 68.5313,18.1094 68.375,18.2031 C68.125,18.3594 67.9688,18.6563 67.9688,18.9375 C67.9688,19.2188 68.1094,19.4688 68.3281,19.6406 C68.4844,19.75 68.6719,19.7813 69.0938,19.7813 L69.3438,19.7813 L69.3438,26.2969 L69.0938,26.2969 C68.6875,26.2969 68.5313,26.3125 68.375,26.4219 C68.125,26.5938 67.9688,26.8594 67.9688,27.1563 C67.9688,27.4219 68.1094,27.6719 68.3281,27.8281 C68.4688,27.9531 68.7031,28 69.0938,28 L77.0938,28 L77.0938,25.4219 C77.0938,24.9844 77.0625,24.8438 76.9844,24.6875 C76.8125,24.4375 76.5313,24.2813 76.25,24.2813 C75.9844,24.2813 75.7188,24.3906 75.5469,24.6406 C75.4375,24.7969 75.4063,24.9375 75.4063,25.4219 L75.4063,26.2969 L71.0469,26.2969 L71.0469,23.875 Z " fill="#000000"/><text fill="#000000" font-family="sans-serif" font-size="14" lengthAdjust="spacing" textLength="31" x="92.75" y="27.8467">User</text><line style="stroke:#181818;stroke-width:0.5;" x1="8" x2="176" y1="39" y2="39"/><ellipse cx="18" cy="52.6484" fill="#000000" rx="3" ry="3" style="stroke:#000000;stroke-width:1.0;"/><text fill="#000000" font-family="sans-serif" font-size="14" lengthAdjust="spacing" textLength="66" x="27" y="55.9951">id: String</text><ellipse cx="18" cy="68.9453" fill="#000000" rx="3" ry="3" style="stroke:#000000;stroke-width:1.0;"/><text fill="#000000" font-family="sans-serif" font-size="14" lengthAdjust="spacing" textLength="144" x="27" y="72.292">displayName: String</text><ellipse cx="18" cy="85.2422" fill="#000000" rx="3" ry="3" style="stroke:#000000;stroke-width:1.0;"/><text fill="#000000" font-family="sans-serif" font-size="14" lengthAdjust="spacing" textLength="91" x="27" y="88.5889">posts: Post[]</text><line style="stroke:#181818;stroke-width:0.5;" x1="8" x2="176" y1="95.8906" y2="95.8906"/></g><!--MD5=[9bb0bdd047fba1a3c8d48282c35b4537]
class Post--><g id="elem_Post"><rect codeLine="9" fill="#F1F1F1" height="113.1875" id="Post" rx="2.5" ry="2.5" style="stroke:#181818;stroke-width:0.5;" width="137" x="23.5" y="164"/><ellipse cx="71.75" cy="180" fill="#ADD1B2" rx="11" ry="11" style="stroke:#181818;stroke-width:1.0;"/><path d="M70.5469,180.875 L72,180.875 L72,180.9844 C72,181.3906 72.0313,181.5469 72.1094,181.7031 C72.2656,181.9531 72.5469,182.1094 72.8438,182.1094 C73.0938,182.1094 73.3594,181.9688 73.5156,181.75 C73.6406,181.5938 73.6719,181.4375 73.6719,180.9844 L73.6719,179.0625 C73.6719,178.9063 73.6719,178.8594 73.6563,178.7031 C73.5938,178.2344 73.2813,177.9219 72.8281,177.9219 C72.5781,177.9219 72.3125,178.0625 72.1406,178.2813 C72.0313,178.4531 72,178.6094 72,179.0625 L72,179.1875 L70.5469,179.1875 L70.5469,176.7813 L74.5313,176.7813 L74.5313,177.6406 C74.5313,178.0469 74.5625,178.2188 74.6406,178.375 C74.8125,178.625 75.0938,178.7813 75.375,178.7813 C75.6406,178.7813 75.9063,178.6406 76.0781,178.4219 C76.1875,178.25 76.2188,178.1094 76.2188,177.6406 L76.2188,175.0938 L68.5938,175.0938 C68.1563,175.0938 68.0313,175.1094 67.875,175.2031 C67.625,175.3594 67.4688,175.6563 67.4688,175.9375 C67.4688,176.2188 67.6094,176.4688 67.8281,176.6406 C67.9844,176.75 68.1719,176.7813 68.5938,176.7813 L68.8438,176.7813 L68.8438,183.2969 L68.5938,183.2969 C68.1875,183.2969 68.0313,183.3125 67.875,183.4219 C67.625,183.5938 67.4688,183.8594 67.4688,184.1563 C67.4688,184.4219 67.6094,184.6719 67.8281,184.8281 C67.9688,184.9531 68.2031,185 68.5938,185 L76.5938,185 L76.5938,182.4219 C76.5938,181.9844 76.5625,181.8438 76.4844,181.6875 C76.3125,181.4375 76.0313,181.2813 75.75,181.2813 C75.4844,181.2813 75.2188,181.3906 75.0469,181.6406 C74.9375,181.7969 74.9063,181.9375 74.9063,182.4219 L74.9063,183.2969 L70.5469,183.2969 L70.5469,180.875 Z " fill="#000000"/><text fill="#000000" font-family="sans-serif" font-size="14" lengthAdjust="spacing" textLength="32" x="92.25" y="184.8467">Post</text><line style="stroke:#181818;stroke-width:0.5;" x1="24.5" x2="159.5" y1="196" y2="196"/><ellipse cx="34.5" cy="209.6484" fill="#000000" rx="3" ry="3" style="stroke:#000000;stroke-width:1.0;"/><text fill="#000000" font-family="sans-serif" font-size="14" lengthAdjust="spacing" textLength="66" x="43.5" y="212.9951">id: String</text><ellipse cx="34.5" cy="225.9453" fill="#000000" rx="3" ry="3" style="stroke:#000000;stroke-width:1.0;"/><text fill="#000000" font-family="sans-serif" font-size="14" lengthAdjust="spacing" textLength="111" x="43.5" y="229.292">content: String</text><ellipse cx="34.5" cy="242.2422" fill="#000000" rx="3" ry="3" style="stroke:#000000;stroke-width:1.0;"/><text fill="#000000" font-family="sans-serif" font-size="14" lengthAdjust="spacing" textLength="70" x="43.5" y="245.5889">user: User</text><ellipse cx="34.5" cy="258.5391" fill="#000000" rx="3" ry="3" style="stroke:#000000;stroke-width:1.0;"/><text fill="#000000" font-family="sans-serif" font-size="14" lengthAdjust="spacing" textLength="96" x="43.5" y="261.8857">userId: String</text><line style="stroke:#181818;stroke-width:0.5;" x1="24.5" x2="159.5" y1="269.1875" y2="269.1875"/></g><!--MD5=[77c575690b0287b9077f2f97ff7c450d]
link User to Post--><g id="link_User_Post"><path codeLine="16" d="M69.1667,112.113 C69.1667,112.113 69.1667,155.81 69.1667,155.81 " fill="none" id="User-Post" style="stroke:#181818;stroke-width:1.0;stroke-dasharray:7.0,7.0;"/><line style="stroke:#181818;stroke-width:1.0;" x1="65.1667" x2="73.1667" y1="108.113" y2="108.113"/><line style="stroke:#181818;stroke-width:1.0;" x1="65.1667" x2="73.1667" y1="111.113" y2="111.113"/><line style="stroke:#181818;stroke-width:1.0;" x1="69.1667" x2="69.1667" y1="112.113" y2="104.113"/><line style="stroke:#181818;stroke-width:1.0;" x1="69.1667" x2="75.1667" y1="155.81" y2="163.81"/><line style="stroke:#181818;stroke-width:1.0;" x1="69.1667" x2="63.1667" y1="155.81" y2="163.81"/><line style="stroke:#181818;stroke-width:1.0;" x1="69.1667" x2="69.1667" y1="155.81" y2="163.81"/><line style="stroke:#181818;stroke-width:1.0;" x1="73.1667" x2="65.1667" y1="153.81" y2="153.81"/></g><!--MD5=[77c575690b0287b9077f2f97ff7c450d]
link User to Post--><g id="link_User_Post"><path codeLine="17" d="M114.833,112.113 C114.833,112.113 114.833,155.81 114.833,155.81 " fill="none" id="User-Post-1" style="stroke:#181818;stroke-width:1.0;stroke-dasharray:7.0,7.0;"/><line style="stroke:#181818;stroke-width:1.0;" x1="110.833" x2="118.833" y1="108.113" y2="108.113"/><line style="stroke:#181818;stroke-width:1.0;" x1="110.833" x2="118.833" y1="111.113" y2="111.113"/><line style="stroke:#181818;stroke-width:1.0;" x1="114.833" x2="114.833" y1="112.113" y2="104.113"/><line style="stroke:#181818;stroke-width:1.0;" x1="114.833" x2="120.833" y1="155.81" y2="163.81"/><line style="stroke:#181818;stroke-width:1.0;" x1="114.833" x2="108.833" y1="155.81" y2="163.81"/><line style="stroke:#181818;stroke-width:1.0;" x1="114.833" x2="114.833" y1="155.81" y2="163.81"/><line style="stroke:#181818;stroke-width:1.0;" x1="118.833" x2="110.833" y1="153.81" y2="153.81"/></g><!--MD5=[7efca86ddbc9c5ce9e3516341551b7c9]
@startuml
skinparam linetype ortho

entity User {
  * id: String
  * displayName: String
  * posts: Post[]
}

entity Post {
  * id: String
  * content: String
  * user: User
  * userId: String
}

User ||..|{ Post
User ||..|{ Post
@enduml

PlantUML version 1.2022.13beta8(Unknown compile time)
(GPL source distribution)
Java Runtime: Java(TM) SE Runtime Environment
JVM: Java HotSpot(TM) 64-Bit Server VM
Default Encoding: UTF-8
Language: en
Country: US
--></g></svg>